# xmcd
#
# Track frame offsets:
#	150
#	13103
#	24951
#	38765
#	50618
#	69834
#	82817
#	105318
#	122445
#	133474
#	144434
#	157249
#	168923
#	185744
#	197099
#	209483
#	221046
#	234164
#	244566
#	263442
#	274978
#	291902
#	302887
#	311501
#	323933
#	337207
#
# Disc length: 4766 seconds
#
# Revision: 0
# Processed by: cddbd v1.5.2PL0 Copyright (c) Steve Scherf et al.
# Submitted via: audiograbber 1.83.01
#
DISCID=7d129c1a
DTITLE=Diverse - Country Western 1955 - 1980 CD-9
DYEAR=1900
DGENRE=Country
TTITLE0=Simon and Garfunkel - Cecelia
TTITLE1=Guy Mitchell - Heartaches By The Number
TTITLE2=Juice Newton - Texas Heartache
TTITLE3=Johnny Paycheck - Take This Job And Shove It
TTITLE4=Marty Robbins - El Paso City
TTITLE5=Leroy Van Dyke - Auctioneer
TTITLE6=Kiki Dee - I´ve Got The Music In Me
TTITLE7=Ed Bruce - Mama Don´t Let Your Babies Grown Up To Be Cowboys
TTITLE8=Brenda Lee - Dum Dum
TTITLE9=Gene Mc Daniels - Spanih Lace
TTITLE10=Dr. Hook - Mama Don´t Dance and Your Daddy Don´t Rock N´Roll
TTITLE11=Lloyd Price - Personality
TTITLE12=Glen Frey - The Heat Is On
TTITLE13=B. W. Stevenson - My Maria
TTITLE14=Sam Cooke - You Send Me
TTITLE15=Wanda Jackson - In The Middle Of A Heartache
TTITLE16=Kenny Rogers - Ruby Don´t Take Your Love To Town
TTITLE17=Little Richard - Send Me Some Lovin´
TTITLE18=Ray Charles - I Can´t Stop Loving You
TTITLE19=Brooke Benton - Think Twice
TTITLE20=Kenny Logins - Footloose
TTITLE21=Stone Wall Jackson - Watterloo
TTITLE22=Paul Evans - Happy Go Lucky
TTITLE23=Dolly Parton - 9 To 5
TTITLE24=Willson Pickett - 634-5789
TTITLE25=Rupert Holmes - Escape
EXTD=
EXTT0=
EXTT1=
EXTT2=
EXTT3=
EXTT4=
EXTT5=
EXTT6=
EXTT7=
EXTT8=
EXTT9=
EXTT10=
EXTT11=
EXTT12=
EXTT13=
EXTT14=
EXTT15=
EXTT16=
EXTT17=
EXTT18=
EXTT19=
EXTT20=
EXTT21=
EXTT22=
EXTT23=
EXTT24=
EXTT25=
PLAYORDER=
